<svg width="21" height="20" viewBox="0 0 21 20" fill="none" xmlns="http://www.w3.org/2000/svg">
<path d="M5.99977 16C4.89977 16 4.00977 16.9 4.00977 18C4.00977 19.1 4.89977 20 5.99977 20C7.09977 20 7.99977 19.1 7.99977 18C7.99977 16.9 7.09977 16 5.99977 16Z" fill="#D23838"/>
<path d="M15.9998 16C14.8998 16 14.0098 16.9 14.0098 18C14.0098 19.1 14.8998 20 15.9998 20C17.0998 20 17.9998 19.1 17.9998 18C17.9998 16.9 17.0998 16 15.9998 16Z" fill="#D23838"/>
<path d="M14.55 11C15.3 11 15.96 10.59 16.3 9.97L19.88 3.48C20.25 2.82 19.77 2 19.01 2H4.21L3.27 0H0V2H2L5.6 9.59L4.25 12.03C3.52 13.37 4.48 15 6 15H18V13H6L7.1 11H14.55ZM5.16 4H17.31L14.55 9H7.53L5.16 4Z" fill="#D23838"/>
</svg>
