<svg width="35" height="33" viewBox="0 0 35 33" fill="none" xmlns="http://www.w3.org/2000/svg">
<path d="M29.1478 8.66828L5.70898 8.64844L5.74865 24.2062L29.1875 24.2261L29.1478 8.66828Z" fill="#346FB7"/>
<path d="M29.1477 8.66764L26.5704 8.66542L19.9233 12.8284L19.9136 8.65877L15.9401 8.6566L15.9503 12.7845L9.47666 8.64964L5.70976 8.64705L5.7146 10.8064L11.3981 14.4363L5.72345 14.4328L5.73296 18.2268L11.2935 18.2316L5.74165 21.7079L5.7485 24.2043L9.00994 24.207L15.9682 19.8502L15.9789 24.2139L19.9523 24.216L19.9412 19.8941L26.7179 24.222L29.1864 24.2249L29.178 21.2346L24.4956 18.2432L29.1709 18.2474L29.1607 14.4518L24.5948 14.4484L29.1538 11.5929L29.1477 8.66764Z" fill="#FFFEF3"/>
<path d="M29.1477 8.66764L28.7247 8.66722L18.6583 14.9718L18.6414 8.65888L17.2107 8.65719L17.2278 15.0134L7.26229 8.64792L5.70976 8.64705L5.71158 9.38437L15.5282 15.655L5.72692 15.647L5.72949 17.0126L15.3844 17.021L5.74651 23.0574L5.7485 24.2043L6.86179 24.2062L17.2346 17.71L17.251 24.2138L18.6818 24.2154L18.6647 17.6591L28.9438 24.2243L29.1864 24.2249L29.1821 22.6505L20.3771 17.025L29.169 17.0325L29.1642 15.666L20.5078 15.6592L29.1503 10.2466L29.1477 8.66764Z" fill="#FF5252"/>
</svg>
